<svg xmlns="http://www.w3.org/2000/svg" viewBox="0 0 64 64"><defs><style>.cls-1{fill:#ff2400;}.cls-2{fill:#b0bec5;}</style></defs><title>Magnet</title><g id="Layer_2" data-name="Layer 2"><g id="Layer_1-2" data-name="Layer 1"><path class="cls-1" d="M64,35a2.41,2.41,0,0,1-.71,1.71L55,45,43.46,56.54a25.46,25.46,0,1,1-36-36L19,9,27.29.71a2.41,2.41,0,0,1,3.42,0l8.58,8.58a2.41,2.41,0,0,1,0,3.42L31,21,18.49,33.51a8.49,8.49,0,0,0,9.24,13.85,8.64,8.64,0,0,0,2.76-1.85L43,33l8.29-8.29a2.41,2.41,0,0,1,3.42,0l8.58,8.58A2.41,2.41,0,0,1,64,35Z"/><path class="cls-2" d="M39.29,9.29a2.41,2.41,0,0,1,0,3.42L31,21,19,9,27.29.71a2.41,2.41,0,0,1,3.42,0Z"/><path class="cls-2" d="M64,35a2.41,2.41,0,0,1-.71,1.71L55,45,43,33l8.29-8.29a2.41,2.41,0,0,1,3.42,0l8.58,8.58A2.41,2.41,0,0,1,64,35Z"/></g></g></svg>